<?xml version="1.0" ?>
<svg xmlns="http://www.w3.org/2000/svg" xmlns:ev="http://www.w3.org/2001/xml-events" xmlns:xlink="http://www.w3.org/1999/xlink" baseProfile="full" height="600px" version="1.1" viewBox="388.1113729307416 17.08595997530807 281.3300458109159 1080.8554887264845" width="157px">
	<defs/>
	<path d="M 487.32081994232675,120.05899756942796 C 487.34813492819274,120.44687036872479 486.909435266197,121.31472607258223 487.5393398292545,123.16197996380258 C 488.169244392312,125.00923385502293 486.0968789889058,126.82995267064109 492.36005644678653,134.83702869919077 C 498.62323390466725,142.84410472774044 531.6911428426273,179.96460967234506 537.6447594923,187.2185881922 C 543.5983761419726,194.47256671205494 531.728739944993,180.73484224361783 539.988989644168,192.86885685803034 C 548.249239343343,205.00287147244285 596.2392221262585,265.29869530670385 603.7267570857,284.2907051075 C 611.2142920451415,303.28271490829616 601.2053947715943,335.8688957457166 599.8892693197,344.8049352644 C 598.5731438678057,353.7409747830834 594.3807458046772,352.79845676880916 593.197753470546,355.7790212569671 C 592.0147611364148,358.75958574512504 590.6633299650465,366.16417815128295 590.4253306466511,368.6494511696635 C 590.1873313282557,371.13472418804406 591.1460229542486,374.55600306603696 591.2937589233823,375.6612054040115 C 591.441494892516,376.7664077419861 590.3098122162305,371.5304286250868 591.6072183997202,377.4910698734604 C 592.9046245832099,383.45171112183397 608.0650222684609,407.6030051226844 601.6730083913,423.346335391 C 595.280994514139,439.08966565931564 548.4874001089736,491.06229245006773 540.4711073824326,503.43771201998516 C 532.4548146558916,515.8131315899026 535.0592071413264,512.0626540360878 537.5426665789723,522.3496919503397 C 540.0261260166183,532.6367298645915 557.5510868828464,573.6382236418424 560.3387828836,585.734015334 C 563.1264788843534,597.8298070261576 564.0964268156213,614.6068208561653 559.844234585,619.1160254876 C 555.5920423543787,623.6252301190348 532.2546449028359,620.552214340124 526.32124503863,621.807652385478 C 520.387845174424,623.0630904308321 524.9608177892198,614.8490231151889 512.3770356713522,629.1595298504326 C 499.79325355348465,643.4700365856763 436.78744009795867,720.2146520375078 425.6509880956893,736.2917062674279 C 414.5145360934199,752.368760497348 421.63133669135624,751.1668021318019 423.2854196531972,757.7759636897932 C 424.9395026150382,764.3851252477846 436.8656723964955,785.113558611397 438.88365179041705,789.164998731359 C 440.9016311843386,793.216438851321 437.9786167423218,787.640407960147 439.42925480456967,790.1874846494895 C 440.87989286681756,792.7345613388321 453.48701864769737,796.5310335300445 450.4887562884,809.5416122461 C 447.4904939291026,822.5521909621556 419.91531709486003,883.4195942733013 415.4431559301904,894.2721143779337 C 410.9709947655208,905.1246344825661 415.1040608282651,895.0589426699843 414.7114669710432,896.3617730831588 C 414.31887311382127,897.6646034963334 410.7978339159341,900.5308878531663 412.30240507241547,904.6947576833301 C 413.8069762288968,908.8586275134938 420.4366195800457,925.4445372945601 426.74803622289375,929.6727317244688 C 433.0594528657418,933.9009261543775 454.43439378369925,935.5146878578836 462.7937382152,938.5203131226 C 471.15308264670074,941.5259383873164 483.9862316587746,945.1454466364805 493.6227916749,953.7177338422 C 503.2593516910255,962.2900210479196 530.3248445965916,1003.7006538446765 539.8862183442036,1007.0986107683568 C 549.4475920918156,1010.4965676920373 572.449065750044,991.2303452024208 570.1137816557964,980.9013892316432 C 567.7784975615488,970.5724332608655 528.1015146104518,932.1262887016613 521.2039455902226,924.466963002135 C 514.3063765699934,916.8076373026086 520.2683356178193,922.4753881888587 514.9332294939629,919.6267836354316 C 509.59812337010646,916.7781790820044 483.58379977336006,904.1072906665531 478.5230965993712,901.6781265747173 C 473.4623934253823,899.2489624828816 477.01862950506046,900.8850792118347 474.4476041020515,900.1934709007451 C 471.8765786990426,899.5018625896554 455.8611043674677,906.6978328821101 457.9548933753,896.145260086 C 460.0486823831323,885.5926872898899 487.18211986741596,828.0153056891899 491.19791616470985,815.7728885318644 C 495.21371246200374,803.5304713745389 492.1751781721771,803.8218760579546 490.0812637536509,798.2059228273964 C 487.98734933512463,792.5899695968383 477.6040196907564,776.686370132787 474.4466008165,770.8452626874 C 471.2891819422436,765.004155242013 456.8688708272751,765.2085991762 464.8219127596,751.4770632643 C 472.774954691925,737.7455273524 523.527008543534,672.7360834398077 538.0709362751,660.9929753922 C 552.6148640066663,649.2498673445924 573.4858951291302,660.4197432285386 581.1733346121293,657.5321988834392 C 588.8607740951285,654.6446545383398 597.1685797169105,647.248277276488 599.5704521390933,637.8926206314044 C 601.9723245612761,628.5369639863208 600.4333254762021,590.4707559599071 600.3883139895916,582.6869457227705 C 600.343302502981,574.9031354856338 601.9001341278704,583.5747123314571 599.2103602462089,575.6221387343109 C 596.5205863645474,567.6695651371646 573.8853863255441,535.9863262753145 578.8701229363,519.0663569456 C 583.854859547056,502.1463876158855 631.1055523782062,452.1668285308489 639.0882531322562,440.262384096595 C 647.0709538863063,428.3579396623411 643.7381120226828,432.5441402858057 642.7317289687008,423.83080147156886 C 641.7253459147189,415.117462657332 631.8020912112707,378.3580052059845 631.0371887004,370.5556735827 C 630.2722861895292,362.75334195941554 635.5550959579132,363.6983889103095 636.6125088817344,361.4121484852931 C 637.6699218055555,359.12590806027663 638.5619631872936,362.4610773178639 639.4964920909696,352.26575018256835 C 640.4310209946456,342.0704230472728 643.9589073502895,290.48955371896585 644.0887401111419,279.8495314029288 C 644.2185728719943,269.2095090868917 649.1792427726319,280.49502551326304 640.5351541777892,267.145571654272 C 631.8910655829465,253.79611779528088 583.6502419795983,185.89301618238116 574.9360313524,173.053900531 C 566.2218207252018,160.21478487961886 577.3609975856107,172.47976039422724 570.8214691602032,164.4326464432226 C 564.2819407347956,156.38553249221798 528.0424225233312,114.18706502107176 522.6198039491397,108.6769889229628 C 517.1971853749483,103.16691282485385 526.8652459753462,119.28052936572429 527.4405205666717,120.352037658351 C 528.0157951579972,121.4235459509777 532.236963257787,117.28568527509177 527.2220006797439,117.24905526397637 C 522.2070381017008,117.21242525286098 492.3084675345039,119.7077547812465 487.32081994232675,120.05899756942796" fill="none" stroke="red" stroke-width="0.8999629381569397"/>
</svg>
