<?xml version="1.0" ?>
<svg xmlns="http://www.w3.org/2000/svg" xmlns:ev="http://www.w3.org/2001/xml-events" xmlns:xlink="http://www.w3.org/1999/xlink" baseProfile="full" height="600px" version="1.1" viewBox="-50.03957799724452 -29.154407547550193 856.7038799041654 1131.7737713035517" width="455px">
	<defs/>
	<path d="M 454.0,452.0 C 461.875,439.625 507.0,369.875 517.0,353.0 C 527.0,336.125 531.25,322.125 534.0,317.0 C 536.75,311.875 536.125,313.625 539.0,312.0 C 541.875,310.375 554.375,305.125 557.0,304.0 C 559.625,302.875 556.75,303.5 560.0,303.0 C 563.25,302.5 576.5,309.375 583.0,300.0 C 589.5,290.625 607.625,237.75 612.0,228.0 C 616.375,218.25 608.625,226.25 618.0,222.0 C 627.375,217.75 682.375,204.875 687.0,194.0 C 691.625,183.125 659.0,143.75 655.0,135.0 C 651.0,126.25 651.625,130.625 655.0,124.0 C 658.375,117.375 678.125,87.75 682.0,82.0 C 685.875,76.25 682.375,80.0 686.0,78.0 C 689.625,76.0 705.625,63.0 711.0,66.0 C 716.375,69.0 728.875,96.5 729.0,102.0 C 729.125,107.5 715.75,106.375 712.0,110.0 C 708.25,113.625 696.375,120.625 699.0,131.0 C 701.625,141.375 728.875,183.875 733.0,193.0 C 737.125,202.125 733.375,200.5 732.0,204.0 C 730.625,207.5 723.875,218.375 722.0,221.0 C 720.125,223.625 726.625,220.75 717.0,225.0 C 707.375,229.25 657.875,241.875 645.0,255.0 C 632.125,268.125 619.0,319.75 614.0,330.0 C 609.0,340.25 610.375,335.625 605.0,337.0 C 599.625,338.375 576.0,340.125 571.0,341.0 C 566.0,341.875 567.375,340.0 565.0,344.0 C 562.625,348.0 553.75,369.25 552.0,373.0 C 550.25,376.75 559.75,360.375 551.0,374.0 C 542.25,387.625 491.25,468.0 482.0,482.0 C 472.75,496.0 478.5,485.25 477.0,486.0 C 475.5,486.75 475.625,484.25 470.0,488.0 C 464.375,491.75 437.25,512.375 432.0,516.0 C 426.75,519.625 431.375,516.125 428.0,517.0 C 424.625,517.875 408.375,522.25 405.0,523.0 C 401.625,523.75 406.5,523.75 401.0,523.0 C 395.5,522.25 366.25,517.75 361.0,517.0 C 355.75,516.25 361.5,517.625 359.0,517.0 C 356.5,516.375 344.125,509.875 341.0,512.0 C 337.875,514.125 335.125,530.875 334.0,534.0 C 332.875,537.125 344.125,519.5 332.0,537.0 C 319.875,554.5 246.875,653.5 237.0,674.0 C 227.125,694.5 250.75,696.875 253.0,701.0 C 255.25,705.125 255.5,701.125 255.0,707.0 C 254.5,712.875 249.75,742.75 249.0,748.0 C 248.25,753.25 251.0,739.875 249.0,749.0 C 247.0,758.125 235.25,811.5 233.0,821.0 C 230.75,830.5 231.5,824.25 231.0,825.0 C 230.5,825.75 229.375,824.25 229.0,827.0 C 228.625,829.75 228.875,843.375 228.0,847.0 C 227.125,850.625 236.625,847.375 222.0,856.0 C 207.375,864.625 125.375,908.375 111.0,916.0 C 96.625,923.625 111.75,916.375 107.0,917.0 C 102.25,917.625 74.0,911.875 73.0,921.0 C 72.0,930.125 100.375,979.625 99.0,990.0 C 97.625,1000.375 71.5,1015.0 62.0,1004.0 C 52.5,993.0 26.625,916.75 23.0,902.0 C 19.375,887.25 23.875,889.0 33.0,886.0 C 42.125,883.0 76.375,885.25 96.0,878.0 C 115.625,870.75 178.125,836.0 190.0,828.0 C 201.875,820.0 190.625,816.375 191.0,814.0 C 191.375,811.625 192.375,810.125 193.0,809.0 C 193.625,807.875 193.875,813.625 196.0,805.0 C 198.125,796.375 207.75,751.5 210.0,740.0 C 212.25,728.5 216.0,720.75 214.0,713.0 C 212.0,705.25 196.5,683.75 194.0,678.0 C 191.5,672.25 181.25,686.75 194.0,667.0 C 206.75,647.25 281.875,543.0 296.0,520.0 C 310.125,497.0 305.5,487.875 307.0,483.0 C 308.5,478.125 307.0,482.5 308.0,481.0 C 309.0,479.5 312.625,472.875 315.0,471.0 C 317.375,469.125 320.125,465.125 327.0,466.0 C 333.875,466.875 360.75,476.0 370.0,478.0 C 379.25,480.0 395.625,481.75 401.0,482.0 C 406.375,482.25 406.875,483.5 413.0,480.0 C 419.125,476.5 444.875,457.5 450.0,454.0 C 455.125,450.5 453.5,452.25 454.0,452.0" fill="none" stroke="red" stroke-width="0.942359509828103"/>
</svg>
