<?xml version="1.0" ?>
<svg xmlns="http://www.w3.org/2000/svg" xmlns:ev="http://www.w3.org/2001/xml-events" xmlns:xlink="http://www.w3.org/1999/xlink" baseProfile="full" height="600px" version="1.1" viewBox="142.95498334833292 72.47966597793116 404.06653401017235 1006.8401649122769" width="241px">
	<defs/>
	<path d="M 465.0,157.0 C 460.0,153.375 510.625,190.125 505.0,186.0 C 499.375,181.875 510.875,191.25 510.0,190.0 C 509.125,188.75 512.375,197.5 512.0,196.0 C 511.625,194.5 513.0,203.5 513.0,202.0 C 513.0,200.5 511.625,209.375 512.0,208.0 C 512.375,206.625 506.75,218.0 510.0,213.0 C 513.25,208.0 480.75,257.125 486.0,248.0 C 491.25,238.875 465.375,291.375 468.0,286.0 C 470.625,280.625 464.0,292.125 465.0,291.0 C 466.0,289.875 458.625,295.75 460.0,295.0 C 461.375,294.25 446.875,298.5 454.0,297.0 C 461.125,295.5 396.125,308.875 403.0,307.0 C 409.875,305.125 392.125,332.125 399.0,312.0 C 405.875,291.875 341.25,488.25 348.0,468.0 C 354.75,447.75 344.125,475.25 345.0,474.0 C 345.875,472.75 340.0,478.875 341.0,478.0 C 342.0,477.125 331.25,483.375 337.0,481.0 C 342.75,478.625 287.25,501.625 295.0,497.0 C 302.75,492.375 269.875,527.875 275.0,518.0 C 280.125,508.125 251.25,583.625 254.0,576.0 C 256.75,568.375 252.125,580.625 253.0,579.0 C 253.875,577.375 243.0,598.5 247.0,589.0 C 251.0,579.5 225.5,669.75 221.0,655.0 C 216.5,640.25 291.25,714.0 283.0,707.0 C 274.75,700.0 287.875,712.5 287.0,711.0 C 286.125,709.5 291.0,724.625 290.0,719.0 C 289.0,713.375 295.625,761.5 295.0,756.0 C 294.375,750.5 294.75,764.625 295.0,763.0 C 295.25,761.375 292.5,770.125 293.0,769.0 C 293.5,767.875 284.125,780.5 291.0,772.0 C 297.875,763.5 234.875,847.375 238.0,837.0 C 241.125,826.625 270.125,857.75 266.0,855.0 C 261.875,852.25 272.0,860.125 271.0,859.0 C 270.0,857.875 274.625,865.625 274.0,864.0 C 273.375,862.375 276.375,888.25 276.0,872.0 C 275.625,855.75 272.125,1009.25 277.0,994.0 C 281.875,978.75 231.875,980.125 237.0,994.0 C 242.125,1007.875 232.125,866.75 236.0,883.0 C 239.875,899.25 201.625,861.125 206.0,864.0 C 210.375,866.875 200.0,858.875 201.0,860.0 C 202.0,861.125 197.375,853.375 198.0,855.0 C 198.625,856.625 195.75,844.25 196.0,847.0 C 196.25,849.75 196.125,830.5 196.0,833.0 C 195.875,835.5 197.625,825.375 197.0,827.0 C 196.375,828.625 208.25,810.875 201.0,820.0 C 193.75,829.125 261.25,743.0 255.0,754.0 C 248.75,765.0 242.125,722.375 251.0,732.0 C 259.875,741.625 175.125,669.625 184.0,677.0 C 192.875,684.375 179.125,671.75 180.0,673.0 C 180.875,674.25 176.625,665.5 177.0,667.0 C 177.375,668.5 177.125,659.5 177.0,661.0 C 176.875,662.5 182.375,643.625 178.0,655.0 C 173.625,666.375 217.0,558.0 212.0,570.0 C 207.0,582.0 221.5,550.25 218.0,559.0 C 214.5,567.75 243.25,491.75 240.0,500.0 C 236.75,508.25 248.0,488.5 244.0,493.0 C 240.0,497.5 276.125,460.0 272.0,464.0 C 267.875,468.0 278.75,460.25 277.0,461.0 C 275.25,461.75 290.5,456.25 286.0,458.0 C 281.5,459.75 322.5,426.625 313.0,447.0 C 303.5,467.375 368.5,275.25 362.0,295.0 C 355.5,314.75 366.625,286.625 365.0,289.0 C 363.375,291.375 376.875,273.875 375.0,276.0 C 373.125,278.125 381.5,271.125 380.0,272.0 C 378.5,272.875 394.0,267.5 387.0,269.0 C 380.0,270.5 444.0,255.0 436.0,260.0 C 428.0,265.0 454.75,222.375 451.0,229.0 C 447.25,235.625 464.75,202.0 466.0,207.0 C 467.25,212.0 440.875,182.75 441.0,189.0 C 441.125,195.25 468.0,153.0 465.0,157.0" fill="none" stroke="red" stroke-width="0.838334858378249"/>
</svg>
