<svg viewBox="497.77718369507676 9.853096876654314 241.21523629369364 989.1469031233457" xmlns="http://www.w3.org/2000/svg">
    <path d="M 497.77718369507676 9.853096876654314 C 519.9480745742626 29.20863653308638, 610.2675567361329 99.36891239264138, 630.8025289701917 125.9863348152467 C 651.3375012042505 152.60375723785202, 626.2577361738535 152.6215875035238, 620.98701709943 169.55763141228627 C 615.7162980250065 186.49367532104876, 600.1004623393283 208.06460943934403, 599.1782145236509 227.60259826782146 C 598.2559667079737 247.1405870962989, 606.1232609792014 274.78815593146913, 615.4535302053665 286.7855643831509 C 624.7837994315317 298.7829728348327, 641.5673854613179 289.0991239160873, 655.1598298806421 299.58704897791193 C 668.7522742999662 310.0749740397365, 686.3574005778231 320.52771655004244, 697.0081967213115 349.71311475409834 C 707.6589928648 378.89851295815424, 715.6114967682007 453.0966053442069, 719.064606741573 474.69943820224717 C 722.5177167149455 496.3022710602874, 718.5043690321783 477.19782687576225, 717.7268565615462 479.33011190233975 C 716.9493440909141 481.4623969289173, 721.3961101349696 478.82591695245065, 714.3995319177803 487.49314836171226 C 707.4029537005912 496.16037977097386, 677.132196148032 512.8286556088898, 675.7473872584109 531.3335003579098 C 674.3625783687896 549.8383451069298, 704.6687585211461 579.790079931172, 706.0906785800531 598.522216855832 C 707.5125986389603 617.2543537804918, 692.7865873917862 620.4420378398398, 684.2789076118536 643.7263219058686 C 675.7712278319214 667.0106059718975, 655.6631130285836 714.9320969315089, 655.044599900459 738.2279212520046 C 654.4260867723345 761.5237455725004, 667.6338555153981 772.6336957826383, 680.5678288431062 783.5012678288431 C 693.5018021708141 794.3688398750479, 725.6569424320979 792.6616139399922, 732.648439866707 803.4333535292336 C 739.639937301316 814.205093118475, 721.4594834304168 819.1721604116024, 722.5168134507607 848.1317053642914 C 723.5741434711044 877.0912503169803, 737.1462123295737 952.0459074727497, 738.9924199887704 977.1906232453678 C 740.838627647967 1002.3353390179859, 734.4937861697455 995.3651038742279, 733.5940594059406 999.0" stroke="red" fill="none" stroke-width="1%" transform="scale(1, -1)" 
    transform-origin="center"/>
</svg>